# xmcd
#
# Track frame offsets:
#	150
#	7539
#	20696
#	28030
#	38679
#	44871
#	51480
#	61182
#	70495
#	79696
#	90039
#	96983
#	105432
#	116192
#	124641
#	134510
#	140813
#	149428
#	158684
#	165655
#	177085
#	192193
#	202509
#	215554
#	225311
#	236600
#	248587
#	258178
#	266821
#	274155
#	282966
#	292696
#	301117
#	311348
#
# Disc length: 4261 seconds
#
# Revision: 0
# Processed by: cddbd v1.5.2PL0 Copyright (c) Steve Scherf et al.
# Submitted via: EasyCDDAExtractor 16.0.1.1
#
DISCID=d310a322
DTITLE=Johnny Horton+Billy Barton - VA-Country Treasures Vol 1[Johnny Horton+B
DTITLE=illy Barton]
DYEAR=1900
DGENRE=Hillbilly
TTITLE0=Billy Hillbilly Barton and Johnny Horton - Bawlin' Baby
TTITLE1=Johnny Horton - Honky Tonk Jelly Roll Blues
TTITLE2=Johnny Horton - Give Me Back My Picture
TTITLE3=Johnny Horton - Devilish Lovelight
TTITLE4=Johnny Horton - I'll Fill A Drunkard's Grave [no 1]
TTITLE5=Johnny Horton - Go And Wash Those Dirty Feet [No 1]
TTITLE6=Johnny Horton - Egg Money
TTITLE7=Johnny Horton - It's A Long Rocky Road
TTITLE8=Johnny Horton - Banks Of The Beautiful Nile
TTITLE9=Johnny Horton - In My Home In Shelby County
TTITLE10=Johnny Horton - Talk, Gobbler, Talk
TTITLE11=Johnny Horton - Confusion
TTITLE12=Johnny Horton - First Train Headin' South
TTITLE13=Johnny Horton - Go And Wash Those Dirty Feet [No 1]
TTITLE14=Johnny Horton - I'm A Fishin' Man
TTITLE15=Billy Hillbilly Barton and Johnny Horton - I'll Fill A Drunkard's Grave
TTITLE15=[No 2]
TTITLE16=Billy Hillbilly Barton - Blue Eyes You Turned Me Blue
TTITLE17=Billy Hillbilly Barton - Aggravating Love
TTITLE18=Billy Hillbilly Barton - My Love Keeps Travelling On
TTITLE19=Billy Hillbilly Barton - Is My Heart Just a Toy-
TTITLE20=Billy Hillbilly Barton - It's All Wrong
TTITLE21=Billy Hillbilly Barton - Send Me Your Love In A Lett
TTITLE22=Billy Hillbilly Barton - Can't Get Rid Of The Memory
TTITLE23=Billy Hillbilly Barton - The Blue Of Your Love Is Dy
TTITLE24=Billy Hillbilly Barton - Faded Roses
TTITLE25=Billy Hillbilly Barton - The Old Spanish Waltz
TTITLE26=Billy Hillbilly Barton - Strange Affection
TTITLE27=Billy Hillbilly Barton - Blues In The Blue Of The Ni
TTITLE28=Billy Hillbilly Barton - Baby I'm Taking A Ride
TTITLE29=Billy Hillbilly Barton - Rollin' On
TTITLE30=Billy Hillbilly Barton and Johnny Horton - Somebody's Rockin' My Broke
TTITLE31=Billy Hillbilly Barton and Wanda Wayne - The Way She Said I Love You
TTITLE32=Wanda Wayne - Who Will You Cry To Then
TTITLE33=Billy Hillbilly Barton and Wanda Wayne - Broke
EXTD=
EXTT0=
EXTT1=
EXTT2=
EXTT3=
EXTT4=
EXTT5=
EXTT6=
EXTT7=
EXTT8=
EXTT9=
EXTT10=
EXTT11=
EXTT12=
EXTT13=
EXTT14=
EXTT15=
EXTT16=
EXTT17=
EXTT18=
EXTT19=
EXTT20=
EXTT21=
EXTT22=
EXTT23=
EXTT24=
EXTT25=
EXTT26=
EXTT27=
EXTT28=
EXTT29=
EXTT30=
EXTT31=
EXTT32=
EXTT33=
PLAYORDER=
